<svg width="23" height="23" viewBox="0 0 23 23" fill="none" xmlns="http://www.w3.org/2000/svg">
<rect width="22.6667" height="23" rx="4" fill="white" fill-opacity="0.3"/>
<g clip-path="url(#clip0_185_75)">
<path d="M14.667 19C17.6062 17.7108 19.6662 14.9092 19.6662 11.5C19.6662 8.09083 17.6062 5.28917 14.667 4V5.66667C16.6562 6.82167 17.9995 9.03917 17.9995 11.5C17.9995 13.9608 16.6562 16.1783 14.667 17.3333V19Z" fill="white"/>
<path d="M14.6667 7.33339V15.6667C15.6875 14.7501 16.3333 12.9759 16.3333 11.5001C16.3333 10.0242 15.6875 8.25006 14.6667 7.33339ZM4.66667 15.6667H6.91417L11.7042 18.8601C11.8298 18.9435 11.9757 18.9914 12.1263 18.9988C12.277 19.0061 12.4268 18.9726 12.56 18.9017C12.693 18.8305 12.8042 18.7245 12.8817 18.5951C12.9592 18.4656 13.0001 18.3176 13 18.1667V4.83339C12.9999 4.68265 12.959 4.53476 12.8815 4.40546C12.804 4.27617 12.6929 4.1703 12.56 4.09916C12.4271 4.02801 12.2774 3.99424 12.1268 4.00144C11.9763 4.00864 11.8305 4.05655 11.705 4.14006L6.91417 7.33339H4.66667C3.7475 7.33339 3 8.08089 3 9.00006V14.0001C3 14.9192 3.7475 15.6667 4.66667 15.6667ZM4.66667 9.00006L5.5 9.99994C5.5275 9.99994 7.2175 8.98672 7.24417 8.98422C7.35501 8.97292 7.46258 8.94008 7.56083 8.88756C7.5825 8.87506 7.60833 8.87339 7.62917 8.86006L11.3333 6.39006L4.5 9.49994L6.5 12.9999L7.62917 14.1401C7.60833 14.1259 7.5825 14.1234 7.56083 14.1126C7.46242 14.059 10 10.9999 7.2425 14.0159C7.21583 14.0134 8.76167 12.813 7.42834 13.8131L9 10.9999L4.66667 9.00006Z" fill="white"/>
</g>
<defs>
<clipPath id="clip0_185_75">
<rect width="16.6667" height="15" fill="white" transform="translate(3 4)"/>
</clipPath>
</defs>
</svg>
